HIERARCHY
ROOT simHips
{
  OFFSET 16.5057 99.3259 -0.292261
  CHANNELS 6 Xposition Yposition Zposition Zrotation Xrotation Yrotation
  JOINT simSpine
  {
    OFFSET -0.000355721 21.3001 -0.016921
    CHANNELS 3 Zrotation Xrotation Yrotation
    JOINT simLeftArm
    {
      OFFSET 13.5181 21.3012 0
      CHANNELS 3 Zrotation Xrotation Yrotation
      JOINT simLeftForeArm
      {
        OFFSET 24.5783 0 0
        CHANNELS 3 Zrotation Xrotation Yrotation
        JOINT simLeftHand
        {
          OFFSET 24.5783 0 0
          CHANNELS 3 Zrotation Xrotation Yrotation
          End Site
          {
            OFFSET 7.32568 1.52588e-005 0.0169305
          }
        }
      }
    }
    JOINT simHead
    {
      OFFSET 0 27.4458 -0.00489235
      CHANNELS 3 Zrotation Xrotation Yrotation
      End Site
      {
        OFFSET 0 0 0
      }
    }
    JOINT simRightArm
    {
      OFFSET -13.5174 21.3012 0
      CHANNELS 3 Zrotation Xrotation Yrotation
      JOINT simRightForeArm
      {
        OFFSET -24.5783 0 0
        CHANNELS 3 Zrotation Xrotation Yrotation
        JOINT simRightHand
        {
          OFFSET -24.5783 0 0
          CHANNELS 3 Zrotation Xrotation Yrotation
          End Site
          {
            OFFSET -7.32568 1.52588e-005 0.0169305
          }
        }
      }
    }
  }
  JOINT simRightUpLeg
  {
    OFFSET -8.44614 -9.41038 0.835684
    CHANNELS 3 Zrotation Xrotation Yrotation
    JOINT simRightLeg
    {
      OFFSET 0 -40.9639 0
      CHANNELS 3 Zrotation Xrotation Yrotation
      JOINT simRightFoot
      {
        OFFSET 0 -40.9639 0
        CHANNELS 3 Zrotation Xrotation Yrotation
        End Site
        {
          OFFSET 0.50614 -9.67405 14.6709
        }
      }
    }
  }
  JOINT simLeftUpLeg
  {
    OFFSET 8.44614 -9.41038 0.835684
    CHANNELS 3 Zrotation Xrotation Yrotation
    JOINT simLeftLeg
    {
      OFFSET 0 -40.9639 0
      CHANNELS 3 Zrotation Xrotation Yrotation
      JOINT simLeftFoot
      {
        OFFSET 0 -40.9639 0
        CHANNELS 3 Zrotation Xrotation Yrotation
        End Site
        {
          OFFSET -0.50614 -9.67405 14.6709
        }
      }
    }
  }
}
MOTION
Frames:	10
Frame Time:	0.0333333
16.5057 99.3259 -0.292261 0 0 -4.66907e-008 -0 0 2.60134e-007 -6.83019e-006 -1.70755e-006 -1.53679e-005 6.83019e-006 1.70755e-006 2.48999e-005 -5.24929e-008 0.00525698 -9.45999e-006 0 0 -2.40124e-007 6.83019e-006 -8.53773e-007 5.12264e-006 0.00561835 -5.97642e-006 -1.49954e-005 -5.75743e-013 6.83019e-006 9.26498e-006 -0.793703 4.55283 0.050376 7.62928e-006 5.44825 0.011332 0.799883 -10.001 0.0775384 -0.253509 8.26834 0.0115486 0.000485149 -0.173091 4.19406e-005 0.253892 -8.09525 0.0179942 
16.5055 99.3268 -0.294582 -0.0188944 -0.00410111 -0.0620642 -0.0236582 0.10956 0.0266088 0.143714 -0.0522995 -0.00739981 -0.00710418 -0.000801502 -0.0500993 -0.00042171 0.00525697 -0.0547484 0.0293393 0.0176345 0.0735412 -0.00957524 -0.00939042 -0.0333099 0.00562359 -0.00899484 0.0334153 -0.00137028 0.010314 0.000153317 -0.769399 4.53687 0.027811 0.00700251 5.50048 0.0295347 0.780949 -10.0214 0.107747 -0.227302 7.95796 0.0115396 -0.015739 0.16636 0.0108398 0.229748 -8.09769 0.0615997 
16.5068 99.3223 -0.295325 -0.0204992 -0.0144177 -0.111928 -0.00920111 0.196649 0.0433818 0.195399 0.0626844 0.0111527 -0.0553165 -0.0543625 -0.0944918 0.0315648 -0.00598492 -0.0200819 0.00845444 0.0790583 0.176391 -0.0621906 -0.0363065 -0.0270775 0.00560887 0.0117882 0.0460586 -0.0308013 0.0367946 -0.0200118 -0.772868 4.57157 0.0438863 0.0132735 5.46741 0.0375413 0.776122 -10.0186 0.130513 -0.215411 8.37249 0.0237037 -0.035669 -0.109702 0.0155894 0.272582 -8.16154 0.0899713 
16.5078 99.317 -0.286207 -0.0209796 -0.0169176 -0.185766 -0.0396346 0.26745 0.0501187 0.23573 -0.0716662 0.0596223 -0.0403042 -0.0652182 -0.0499712 0.0427754 -0.0119649 -0.00169118 0.0195786 0.162404 0.303913 -0.0634133 -0.0520473 0.0185101 0.00558837 0.0316001 0.0543421 -0.0368508 0.0554398 -0.00845561 -0.791458 4.48848 0.0885484 0.0284892 5.60855 0.0484273 0.7623 -10.0553 0.137038 -0.244022 8.31404 0.0289656 -0.0289096 -0.0193256 0.0337451 0.288902 -8.13618 0.139384 
16.5081 99.3115 -0.259521 -0.0210333 -0.0169662 -0.252682 -0.0604609 0.286473 0.0526425 0.233287 -0.130862 0.0821401 -0.0445254 -0.0408861 -0.0434749 0.0133146 -0.00427615 -0.0412782 0.0409775 0.295722 0.411846 -0.0605796 -0.0847956 0.0332916 0.00557514 0.026224 0.0943944 -0.0266507 0.0436304 0.0047442 -0.805943 4.48842 0.111845 0.0376097 5.63091 0.054064 0.741314 -10.0764 0.150974 -0.271195 8.10833 0.030134 -0.00998569 0.150604 0.0580684 0.240825 -8.15763 0.154404 
16.513 99.3048 -0.228683 -0.0207523 -0.0111965 -0.264071 -0.0701803 0.293543 0.0467176 0.156104 -0.164201 0.0591692 -0.0321837 -0.00566039 -0.0754211 0.030805 0.0143042 -0.0350614 0.0753295 0.349973 0.511623 -0.0411793 -0.132584 -0.0236921 0.00207108 -0.0280684 0.152757 -0.027969 0.0238548 0.0299542 -0.82221 4.50608 0.134945 0.0355718 5.63926 0.0544432 0.775211 -10.1474 0.168244 -0.295795 8.08225 0.0258513 0.00849166 0.196888 0.0900036 0.330836 -8.22015 0.171994 
16.5315 99.2998 -0.191374 -0.0203053 -0.0068234 -0.214985 -0.0492183 0.367123 -8.08612e-005 0.0323558 -0.0732276 0.0018879 -0.0588961 -0.0161425 -0.129806 0.0120277 0.00299296 -0.0423262 0.0867417 0.331911 0.680072 -0.00497858 -0.109077 -0.0854453 0.00353795 0.00554952 0.111579 -0.00527478 0.0296657 0.0242622 -0.840495 4.50744 0.205559 0.0326873 5.70297 0.0289901 0.804558 -10.2431 0.125507 -0.279544 8.0844 0.0440203 -0.035522 0.406974 0.0552822 0.339792 -8.45035 0.123925 
16.55 99.2983 -0.144404 -0.0198767 -0.0210789 -0.143234 -0.0117479 0.483798 -0.0619675 -0.103575 -0.0898075 -0.0936847 -0.0800754 -0.0460209 -0.0605129 -0.0125809 -0.038642 -0.0153242 0.0816677 0.258085 0.738702 0.0539692 0.0121779 -0.132202 0.0118331 0.102958 0.00839854 0.0202724 0.0602999 -0.00749577 -0.845391 4.44571 0.302811 0.0328826 5.93864 -0.0102951 0.818704 -10.3723 0.0372789 -0.252536 7.70025 0.0470508 -0.103139 1.09607 0.00347958 0.420095 -8.61138 0.122743 
16.5719 99.2913 -0.0853999 -0.0195902 -0.0533194 -0.137873 -0.00431681 0.655443 -0.0626594 -0.24164 -0.24616 -0.190868 -0.0280815 0.038316 -4.83183e-005 -0.0205457 -0.00184741 -0.0323199 0.0991876 0.188485 0.784824 0.165479 -0.129735 -0.16532 0.0167577 0.158974 -2.95835e-005 0.0154139 0.0758895 -0.0620582 -0.823709 4.5045 0.321048 0.0164237 5.96508 -0.0167123 0.781126 -10.3671 -0.00833194 -0.266652 7.58269 0.0843594 -0.13268 1.43334 0.012763 0.591168 -8.57768 0.176332 
16.6049 99.2865 -0.00230658 -0.0192002 -0.0498033 -0.22976 -0.00954454 0.785544 -0.0325453 -0.317255 -0.364663 -0.133195 -0.0354362 0.0660305 -0.00824227 -0.0603201 -0.00276488 -0.0224328 0.100643 0.187158 0.821113 0.209059 -0.133353 -0.178826 0.0416214 0.145206 2.06426e-005 0.0407964 0.0597153 -0.0546966 -0.857102 4.53728 0.314347 0.0401685 6.01378 -0.00365364 0.774362 -10.3975 0.0515412 -0.284139 7.69311 0.134721 -0.152156 1.40112 0.0523159 0.609166 -8.61063 0.180079 
